<?xml version="1.0" standalone="no"?>
<!DOCTYPE svg PUBLIC "-//W3C//DTD SVG 20010904//EN"
 "http://www.w3.org/TR/2001/REC-SVG-20010904/DTD/svg10.dtd">
<svg version="1.0" xmlns="http://www.w3.org/2000/svg"
 width="140.000000pt" height="140.000000pt" viewBox="0 0 140.000000 140.000000"
 preserveAspectRatio="xMidYMid meet">
<metadata>
Created by potrace 1.10, written by Peter Selinger 2001-2011
</metadata>
<g transform="translate(0.000000,140.000000) scale(0.100000,-0.100000)"
fill="#000000" stroke="none">
<path d="M183 1290 c-64 -39 -63 -26 -63 -592 0 -491 1 -514 20 -545 39 -64
29 -63 565 -63 343 0 493 3 508 11 30 16 56 44 67 74 16 42 13 470 -3 483 -7
6 -58 13 -112 14 l-99 3 -60 186 c-34 103 -67 194 -75 203 -17 20 -54 21 -70
2 -10 -12 -106 -376 -126 -481 l-8 -40 -14 50 c-8 28 -19 66 -23 85 -5 19 -18
73 -30 120 -23 94 -45 126 -79 115 -24 -7 -37 -32 -93 -182 l-23 -63 -60 0
c-65 -1 -95 -15 -95 -47 0 -35 20 -43 110 -43 47 0 90 4 97 8 6 4 23 44 38 90
16 45 29 81 31 79 4 -3 40 -154 69 -292 16 -72 36 -105 65 -105 33 0 51 39 85
181 20 79 39 158 44 174 5 17 17 67 27 113 10 45 21 79 25 75 3 -5 19 -48 33
-98 72 -239 61 -225 177 -225 l89 0 0 -189 c0 -222 0 -221 -102 -221 l-58 0 0
140 0 140 -34 0 c-18 0 -48 3 -65 6 l-31 6 0 -146 0 -146 -55 0 -55 0 0 65 0
65 -71 0 -71 0 4 -64 3 -65 -58 -3 -57 -3 0 138 0 137 -68 0 -68 0 1 -136 0
-136 -93 4 c-62 2 -95 7 -101 16 -10 17 -21 530 -16 797 3 201 4 210 25 227
21 17 57 18 476 18 441 0 455 -1 474 -20 19 -19 20 -33 20 -235 l0 -215 29 0
c63 0 61 -8 61 225 0 206 -5 252 -33 279 -49 48 -29 46 -552 46 -468 0 -491
-1 -522 -20z m73 -25 c-11 -8 -24 -15 -28 -15 -12 0 -42 -30 -56 -55 -9 -16
-11 -17 -12 -4 0 9 7 22 15 29 8 7 13 16 10 20 -3 5 14 15 37 23 54 19 57 20
34 2z m965 -15 c5 0 9 -7 9 -15 0 -8 6 -15 13 -16 9 0 9 -2 -1 -6 -7 -3 -24 7
-38 22 -17 18 -20 26 -9 21 9 -3 21 -6 26 -6z m-302 -247 c7 -16 19 -41 27
-56 12 -24 12 -29 -1 -34 -9 -3 -21 -1 -28 5 -15 11 -47 12 -47 0 0 -4 -5 -8
-11 -8 -8 0 -8 4 0 14 6 8 11 18 9 22 -5 21 14 84 26 84 7 0 18 -12 25 -27z
m-294 -193 c2 -12 0 -18 -6 -15 -5 4 -1 -9 10 -29 14 -24 17 -37 9 -42 -7 -5
-8 -3 -4 5 5 8 0 14 -13 18 -11 3 -18 9 -15 14 8 14 -25 23 -40 10 -7 -6 -15
-8 -19 -5 -8 8 13 65 31 87 14 16 16 16 29 -3 8 -11 16 -29 18 -40z m408 -153
c-4 -6 0 -8 9 -5 8 4 20 -2 26 -13 10 -16 9 -18 -5 -16 -29 4 -45 18 -39 33 3
8 1 14 -4 14 -6 0 -10 5 -10 11 0 8 5 8 15 -1 8 -7 12 -17 8 -23z m210 -48 c6
-24 -11 -24 -40 -1 l-23 17 29 1 c21 1 31 -4 34 -17z m-565 -21 c-5 -13 32
-48 50 -48 5 0 15 7 22 15 21 25 22 12 5 -62 -18 -78 -34 -88 -57 -36 -11 22
-12 33 -4 33 6 0 4 5 -4 10 -13 9 -13 10 0 10 13 0 13 2 1 9 -8 5 -16 15 -17
23 -1 7 -3 18 -4 23 -4 16 0 35 6 35 3 0 4 -6 2 -12z m306 -174 c13 -5 16 -25
16 -116 0 -94 3 -114 20 -138 17 -25 18 -29 4 -34 -20 -8 -88 -8 -109 0 -14 6
-14 9 5 29 20 21 22 34 21 128 -1 133 3 146 43 131z m-474 -127 c0 -101 2
-116 20 -132 11 -10 20 -21 20 -24 0 -4 -29 -8 -65 -9 -70 -4 -83 8 -48 44 14
13 17 34 15 108 -1 112 2 126 34 126 l24 0 0 -113z m248 -69 c2 -23 12 -46 27
-60 14 -13 25 -26 25 -30 0 -5 -31 -8 -70 -8 -72 0 -84 8 -55 36 8 9 15 32 15
53 0 44 7 53 35 49 15 -2 21 -12 23 -40z m-584 -2 c-3 -7 6 -27 20 -43 20 -23
22 -30 9 -30 -9 0 -18 9 -21 19 -2 10 -8 18 -12 18 -4 0 -10 9 -13 20 -4 16 0
22 20 29 1 1 0 -5 -3 -13z"/>
</g>
</svg>
